<svg id="Layer_1" data-name="Layer 1" xmlns="http://www.w3.org/2000/svg" viewBox="0 0 1000 1000"><defs><style>.cls-1{fill:#a6adbb;}.cls-2{fill:#00bf96;}</style></defs><path class="cls-1" d="M657.58,90.46H338.64c-137.89,0-250,112.16-250,250.05v112A123.84,123.84,0,0,1,195.35,329.77c5.51-74.2,67.68-132.93,143.29-132.93H657.58a142.33,142.33,0,0,1,47.32,8l50-50a124.14,124.14,0,0,1,36.66-25.4A248.65,248.65,0,0,0,657.58,90.46ZM801.26,459.1V659.46c0,79.22-64.46,143.67-143.68,143.67H338.64C259.42,803.13,195,738.68,195,659.46V610.32l-70.13-70.13a123.64,123.64,0,0,1-36.24-87.65V659.46c0,137.89,112.16,250.08,250.05,250.08H657.58c137.89,0,250.08-112.19,250.08-250.08V352.69Z"/><path class="cls-2" d="M900.28,280.08a68.76,68.76,0,0,1-9,11.13l-90,90-330.07,330a68.81,68.81,0,0,1-97.38,0L195,532.42l-31.18-31.18a68.86,68.86,0,1,1,97.37-97.4L422.49,565.17,793.85,193.81a68.88,68.88,0,0,1,106.43,86.27Z"/></svg>